<?xml version="1.0" encoding="UTF-8"?>
<svg id="Ebene_1" data-name="Ebene 1" xmlns="http://www.w3.org/2000/svg" width="27.8112mm" height="207.4473mm" viewBox="0 0 78.835 588.0395">
  <defs>
    <style>
      .cls-1 {
        fill: #0c0c0c;
      }
    </style>
  </defs>
  <path class="cls-1" d="M73.1342,504.3403l-20.2713,50.8527h-1.6876c.104-38.3215,4.1066-76.9282,5.0426-115.2632,2.4492-100.2829-2.2277-203.8603-13.9705-303.4118-4.3046-36.4896-9.6022-71.8017-21.4858-106.7883C19.48,25.9485,7.4722-8.4778.7185,1.9632c-3.6771,5.6969,7.8542,23.4318,9.9075,29.4608,9.4512,27.733,17.7785,57.0898,20.1337,86.4466,8.6226,107.5566,15.3461,213.9993,15.3461,322.0592,0,28.1423-.4362,56.761-3.09,84.7523-1.2414,13.0949,1.2347,24.3679-7.0456,35.5939-.1409-6.8846-1.1844-13.5645-2.4056-20.3384-.7146-3.9757-1.5064-7.9481-2.4828-11.8668-.6475-2.6002-8.0522-24.7201-12.1285-13.011-1.6674,4.7877,1.7379,11.7058,2.7847,16.4029,3.2611,14.5945,3.9624,30.464,10.4913,44.0687,2.3318,4.8548,6.6564,14.051,13.5243,12.2863,6.1699-1.5803,9.0822-12.2292,11.1589-17.3692,6.3579-15.752,12.2594-31.6919,18.5804-47.4641,2.986-7.4482,6.6765-14.9871-2.3586-18.6441"/>
</svg>